<svg width="14" height="11" viewBox="0 0 14 11" fill="none" xmlns="http://www.w3.org/2000/svg">
<path d="M10.7737 10.6991C10.6537 10.6668 10.5514 10.5883 10.4893 10.4807C10.4272 10.3731 10.4103 10.2453 10.4424 10.1253L12.2078 3.53463L1.28032 9.84361C1.17266 9.90577 1.04471 9.92262 0.924625 9.89044C0.804541 9.85827 0.702157 9.7797 0.639997 9.67204C0.577837 9.56437 0.560992 9.43643 0.593169 9.31634C0.625345 9.19626 0.703907 9.09388 0.811571 9.03172L11.7391 2.72273L5.14866 0.956267C5.03252 0.920713 4.93472 0.841468 4.87585 0.735228C4.81699 0.628989 4.80166 0.504048 4.8331 0.38673C4.86453 0.269411 4.94028 0.168874 5.04438 0.106299C5.14847 0.0437249 5.27279 0.0239981 5.39115 0.0512755L13.075 2.11017C13.195 2.14239 13.2973 2.22092 13.3594 2.3285C13.4215 2.43607 13.4384 2.5639 13.4063 2.68391L11.3474 10.3678C11.3152 10.4878 11.2366 10.59 11.1291 10.6522C11.0215 10.7143 10.8937 10.7311 10.7737 10.6991Z" fill="white"/>
</svg>
