<svg width="28" height="28" viewBox="0 0 28 28" fill="none" xmlns="http://www.w3.org/2000/svg">
<path d="M17.7737 18.6989C17.6537 18.6666 17.5514 18.5881 17.4893 18.4805C17.4272 18.373 17.4103 18.2451 17.4424 18.1251L19.2078 11.5344L8.28032 17.8434C8.17266 17.9056 8.04471 17.9224 7.92463 17.8903C7.80454 17.8581 7.70216 17.7795 7.64 17.6719C7.57784 17.5642 7.56099 17.4362 7.59317 17.3162C7.62535 17.1961 7.70391 17.0937 7.81157 17.0315L18.7391 10.7225L12.1487 8.95608C12.0325 8.92053 11.9347 8.84129 11.8759 8.73505C11.817 8.62881 11.8017 8.50386 11.8331 8.38655C11.8645 8.26923 11.9403 8.16869 12.0444 8.10612C12.1485 8.04354 12.2728 8.02381 12.3911 8.05109L20.075 10.11C20.195 10.1422 20.2973 10.2207 20.3594 10.3283C20.4215 10.4359 20.4384 10.5637 20.4063 10.6837L18.3474 18.3676C18.3152 18.4876 18.2366 18.5899 18.1291 18.652C18.0215 18.7141 17.8937 18.7309 17.7737 18.6989Z" fill="black"/>
</svg>
